<svg width="41" height="40" viewBox="0 0 41 40" fill="none" xmlns="http://www.w3.org/2000/svg">
<g filter="url(#filter0_d_190_1608)">
<path d="M36.116 0H4.66541V32H36.116V0Z" fill="white"/>
<g clip-path="url(#clip0_190_1608)">
<path d="M20.0645 12.6816C17.9494 12.6816 16.2433 14.3849 16.2433 16.4967C16.2433 18.6084 17.9494 20.3117 20.0645 20.3117C22.1796 20.3117 23.8857 18.6084 23.8857 16.4967C23.8857 14.3849 22.1796 12.6816 20.0645 12.6816ZM20.0645 18.9769C18.6976 18.9769 17.5802 17.8646 17.5802 16.4967C17.5802 15.1287 18.6943 14.0164 20.0645 14.0164C21.4347 14.0164 22.5488 15.1287 22.5488 16.4967C22.5488 17.8646 21.4314 18.9769 20.0645 18.9769ZM24.9333 12.5256C24.9333 13.0203 24.5342 13.4154 24.042 13.4154C23.5465 13.4154 23.1507 13.017 23.1507 12.5256C23.1507 12.0342 23.5498 11.6357 24.042 11.6357C24.5342 11.6357 24.9333 12.0342 24.9333 12.5256ZM27.4642 13.4287C27.4076 12.2367 27.1349 11.1808 26.2603 10.3109C25.3889 9.441 24.3314 9.16873 23.1374 9.10897C21.9069 9.03924 18.2187 9.03924 16.9882 9.10897C15.7976 9.16541 14.7401 9.43768 13.8654 10.3076C12.9908 11.1775 12.7214 12.2334 12.6615 13.4254C12.5917 14.6539 12.5917 18.3361 12.6615 19.5646C12.718 20.7566 12.9908 21.8125 13.8654 22.6824C14.7401 23.5523 15.7943 23.8246 16.9882 23.8844C18.2187 23.9541 21.9069 23.9541 23.1374 23.8844C24.3314 23.8279 25.3889 23.5556 26.2603 22.6824C27.1316 21.8125 27.4043 20.7566 27.4642 19.5646C27.534 18.3361 27.534 14.6572 27.4642 13.4287ZM25.8745 20.8828C25.6151 21.5336 25.1129 22.0349 24.4577 22.2972C23.4767 22.6857 21.1487 22.5961 20.0645 22.5961C18.9803 22.5961 16.649 22.6824 15.6713 22.2972C15.0194 22.0383 14.5172 21.5369 14.2545 20.8828C13.8654 19.9033 13.9552 17.5791 13.9552 16.4967C13.9552 15.4142 13.8687 13.0867 14.2545 12.1105C14.5139 11.4597 15.0161 10.9584 15.6713 10.6961C16.6523 10.3076 18.9803 10.3972 20.0645 10.3972C21.1487 10.3972 23.48 10.3109 24.4577 10.6961C25.1096 10.9551 25.6118 11.4564 25.8745 12.1105C26.2636 13.09 26.1738 15.4142 26.1738 16.4967C26.1738 17.5791 26.2636 19.9066 25.8745 20.8828Z" fill="black"/>
</g>
</g>
<defs>
<filter id="filter0_d_190_1608" x="0.665405" y="0" width="39.4506" height="40" filterUnits="userSpaceOnUse" color-interpolation-filters="sRGB">
<feFlood flood-opacity="0" result="BackgroundImageFix"/>
<feColorMatrix in="SourceAlpha" type="matrix" values="0 0 0 0 0 0 0 0 0 0 0 0 0 0 0 0 0 0 127 0" result="hardAlpha"/>
<feOffset dy="4"/>
<feGaussianBlur stdDeviation="2"/>
<feComposite in2="hardAlpha" operator="out"/>
<feColorMatrix type="matrix" values="0 0 0 0 0 0 0 0 0 0 0 0 0 0 0 0 0 0 0.25 0"/>
<feBlend mode="normal" in2="BackgroundImageFix" result="effect1_dropShadow_190_1608"/>
<feBlend mode="normal" in="SourceGraphic" in2="effect1_dropShadow_190_1608" result="shape"/>
</filter>
<clipPath id="clip0_190_1608">
<rect width="14.8991" height="17" fill="white" transform="translate(12.6117 8)"/>
</clipPath>
</defs>
</svg>
