<svg width="16" height="17" viewBox="0 0 16 17" fill="none" xmlns="http://www.w3.org/2000/svg">
<g clip-path="url(#clip0_190_1610)">
<path d="M8.0645 4.68162C5.94936 4.68162 4.24328 6.38494 4.24328 8.49666C4.24328 10.6084 5.94936 12.3117 8.0645 12.3117C10.1796 12.3117 11.8857 10.6084 11.8857 8.49666C11.8857 6.38494 10.1796 4.68162 8.0645 4.68162ZM8.0645 10.9769C6.69764 10.9769 5.58021 9.86463 5.58021 8.49666C5.58021 7.12869 6.69432 6.01639 8.0645 6.01639C9.43469 6.01639 10.5488 7.12869 10.5488 8.49666C10.5488 9.86463 9.43136 10.9769 8.0645 10.9769ZM12.9333 4.52557C12.9333 5.02029 12.5342 5.41541 12.042 5.41541C11.5465 5.41541 11.1507 5.01697 11.1507 4.52557C11.1507 4.03416 11.5498 3.63572 12.042 3.63572C12.5342 3.63572 12.9333 4.03416 12.9333 4.52557ZM15.4642 5.42869C15.4076 4.2367 15.1349 3.18084 14.2603 2.31092C13.3889 1.441 12.3314 1.16873 11.1374 1.10897C9.90694 1.03924 6.21874 1.03924 4.98824 1.10897C3.79764 1.16541 2.74007 1.43768 1.86541 2.3076C0.990754 3.17752 0.721373 4.23338 0.661511 5.42537C0.591671 6.65389 0.591671 10.3361 0.661511 11.5646C0.718047 12.7566 0.990754 13.8125 1.86541 14.6824C2.74007 15.5523 3.79431 15.8246 4.98824 15.8844C6.21874 15.9541 9.90694 15.9541 11.1374 15.8844C12.3314 15.8279 13.3889 15.5556 14.2603 14.6824C15.1316 13.8125 15.4043 12.7566 15.4642 11.5646C15.534 10.3361 15.534 6.65721 15.4642 5.42869ZM13.8745 12.8828C13.6151 13.5336 13.1129 14.0349 12.4577 14.2972C11.4767 14.6857 9.14868 14.5961 8.0645 14.5961C6.98033 14.5961 4.64902 14.6824 3.67126 14.2972C3.01943 14.0383 2.51725 13.5369 2.25452 12.8828C1.86541 11.9033 1.95521 9.57908 1.95521 8.49666C1.95521 7.41424 1.86874 5.0867 2.25452 4.11053C2.51392 3.45975 3.0161 2.95838 3.67126 2.69608C4.65234 2.3076 6.98033 2.39725 8.0645 2.39725C9.14868 2.39725 11.48 2.31092 12.4577 2.69608C13.1096 2.95506 13.6118 3.45643 13.8745 4.11053C14.2636 5.09002 14.1738 7.41424 14.1738 8.49666C14.1738 9.57908 14.2636 11.9066 13.8745 12.8828Z" fill="black"/>
</g>
<defs>
<clipPath id="clip0_190_1610">
<rect width="14.8991" height="17" fill="white" transform="translate(0.611694)"/>
</clipPath>
</defs>
</svg>
