<svg width="32" height="32" viewBox="0 0 32 32" fill="none" xmlns="http://www.w3.org/2000/svg">
<path d="M31.8537 0H0.403076V32H31.8537V0Z" fill="white"/>
<g clip-path="url(#clip0_190_1616)">
<path d="M16.6679 8.20312C13.4833 8.20312 10.3358 10.3406 10.3358 13.8C10.3358 16 11.565 17.25 12.3099 17.25C12.6172 17.25 12.7942 16.3875 12.7942 16.1438C12.7942 15.8531 12.0585 15.2344 12.0585 14.025C12.0585 11.5125 13.9582 9.73125 16.4165 9.73125C18.5303 9.73125 20.0947 10.9406 20.0947 13.1625C20.0947 14.8219 19.4336 17.9344 17.2918 17.9344C16.5189 17.9344 15.8578 17.3719 15.8578 16.5656C15.8578 15.3844 16.6772 14.2406 16.6772 13.0219C16.6772 10.9531 13.7626 11.3281 13.7626 13.8281C13.7626 14.3531 13.8278 14.9344 14.0606 15.4125C13.6322 17.2688 12.7569 20.0344 12.7569 21.9469C12.7569 22.5375 12.8407 23.1188 12.8966 23.7094C13.0021 23.8281 12.9494 23.8156 13.1108 23.7563C14.6752 21.6 14.6193 21.1781 15.327 18.3562C15.7088 19.0875 16.6959 19.4812 17.4781 19.4812C20.7745 19.4812 22.2551 16.2469 22.2551 13.3313C22.2551 10.2281 19.5919 8.20312 16.6679 8.20312Z" fill="black"/>
</g>
<defs>
<clipPath id="clip0_190_1616">
<rect width="11.9193" height="16" fill="white" transform="translate(10.3358 8)"/>
</clipPath>
</defs>
</svg>
