<svg width="13" height="16" viewBox="0 0 13 16" fill="none" xmlns="http://www.w3.org/2000/svg">
<g clip-path="url(#clip0_190_1618)">
<path d="M6.66793 0.203125C3.48325 0.203125 0.335815 2.34063 0.335815 5.8C0.335815 8 1.56499 9.25 2.30995 9.25C2.61724 9.25 2.79417 8.3875 2.79417 8.14375C2.79417 7.85313 2.05852 7.23438 2.05852 6.025C2.05852 3.5125 3.95816 1.73125 6.41651 1.73125C8.53032 1.73125 10.0947 2.94062 10.0947 5.1625C10.0947 6.82187 9.43358 9.93437 7.29183 9.93437C6.51894 9.93437 5.85779 9.37187 5.85779 8.56563C5.85779 7.38438 6.67725 6.24062 6.67725 5.02187C6.67725 2.95312 3.76261 3.32812 3.76261 5.82812C3.76261 6.35313 3.82779 6.93437 4.06059 7.4125C3.63224 9.26875 2.75692 12.0344 2.75692 13.9469C2.75692 14.5375 2.84073 15.1188 2.8966 15.7094C3.00213 15.8281 2.94937 15.8156 3.11077 15.7563C4.67518 13.6 4.61931 13.1781 5.32701 10.3562C5.7088 11.0875 6.69587 11.4812 7.47807 11.4812C10.7745 11.4812 12.2551 8.24688 12.2551 5.33125C12.2551 2.22813 9.59188 0.203125 6.66793 0.203125Z" fill="black"/>
</g>
<defs>
<clipPath id="clip0_190_1618">
<rect width="11.9193" height="16" fill="white" transform="translate(0.335815)"/>
</clipPath>
</defs>
</svg>
