<svg width="16" height="16" viewBox="0 0 16 16" fill="none" xmlns="http://www.w3.org/2000/svg">
<g clip-path="url(#clip0_190_1614)">
<path d="M14.3458 4.74107C14.3559 4.88319 14.3559 5.02535 14.3559 5.16747C14.3559 9.50247 11.0786 14.4974 5.0887 14.4974C3.24332 14.4974 1.52905 13.9593 0.0870361 13.0253C0.349229 13.0558 0.601303 13.0659 0.873585 13.0659C2.39624 13.0659 3.79794 12.5482 4.91726 11.6649C3.48533 11.6345 2.28534 10.6903 1.87189 9.39081C2.07358 9.42125 2.27525 9.44156 2.48703 9.44156C2.77946 9.44156 3.07192 9.40094 3.34417 9.32991C1.85174 9.02531 0.732385 7.70553 0.732385 6.11163V6.07103C1.16598 6.31469 1.67022 6.46697 2.20463 6.48725C1.32732 5.89841 0.75256 4.89335 0.75256 3.75628C0.75256 3.14716 0.913874 2.58878 1.19624 2.10147C2.7996 4.09131 5.20969 5.39078 7.91217 5.53294C7.86176 5.28928 7.8315 5.0355 7.8315 4.78169C7.8315 2.97457 9.2836 1.5025 11.0886 1.5025C12.0264 1.5025 12.8735 1.89844 13.4684 2.53803C14.2046 2.39591 14.9104 2.12178 15.5357 1.74616C15.2936 2.5076 14.7793 3.14719 14.1037 3.55325C14.7592 3.48222 15.3945 3.29944 15.9793 3.04566C15.5357 3.69538 14.9811 4.27403 14.3458 4.74107Z" fill="black"/>
</g>
<defs>
<clipPath id="clip0_190_1614">
<rect width="15.8924" height="16" fill="white" transform="translate(0.0870361)"/>
</clipPath>
</defs>
</svg>
