<svg width="32" height="32" viewBox="0 0 32 32" fill="none" xmlns="http://www.w3.org/2000/svg">
<path d="M31.5913 0H0.140747V32H31.5913V0Z" fill="white"/>
<g clip-path="url(#clip0_190_1612)">
<path d="M22.3458 12.7411C22.3559 12.8832 22.3559 13.0253 22.3559 13.1675C22.3559 17.5025 19.0786 22.4974 13.0887 22.4974C11.2433 22.4974 9.52905 21.9593 8.08704 21.0253C8.34923 21.0558 8.6013 21.0659 8.87358 21.0659C10.3962 21.0659 11.7979 20.5482 12.9173 19.6649C11.4853 19.6345 10.2853 18.6903 9.87189 17.3908C10.0736 17.4213 10.2752 17.4416 10.487 17.4416C10.7795 17.4416 11.0719 17.4009 11.3442 17.3299C9.85174 17.0253 8.73238 15.7055 8.73238 14.1116V14.071C9.16598 14.3147 9.67022 14.467 10.2046 14.4873C9.32732 13.8984 8.75256 12.8933 8.75256 11.7563C8.75256 11.1472 8.91387 10.5888 9.19624 10.1015C10.7996 12.0913 13.2097 13.3908 15.9122 13.5329C15.8618 13.2893 15.8315 13.0355 15.8315 12.7817C15.8315 10.9746 17.2836 9.5025 19.0886 9.5025C20.0264 9.5025 20.8735 9.89844 21.4684 10.538C22.2046 10.3959 22.9104 10.1218 23.5357 9.74616C23.2936 10.5076 22.7793 11.1472 22.1037 11.5533C22.7592 11.4822 23.3945 11.2994 23.9793 11.0457C23.5357 11.6954 22.9811 12.274 22.3458 12.7411Z" fill="black"/>
</g>
<defs>
<clipPath id="clip0_190_1612">
<rect width="15.8924" height="16" fill="white" transform="translate(8.08704 8)"/>
</clipPath>
</defs>
</svg>
